<?xml version="1.0" encoding="iso-8859-1"?>
<!-- Generator: Adobe Illustrator 19.0.0, SVG Export Plug-In . SVG Version: 6.00 Build 0)  -->
<svg version="1.1" id="Layer_1" xmlns="http://www.w3.org/2000/svg" xmlns:xlink="http://www.w3.org/1999/xlink" x="0px" y="0px"
	 viewBox="0 0 512 512" style="enable-background:new 0 0 512 512;" xml:space="preserve">
<g>
	<g>
		<path d="M493.676,443.893L349.933,300.149c23.122-32.11,35.74-70.953,35.74-110.643C385.673,85.012,300.66,0,196.166,0
			S6.659,85.012,6.659,189.506s85.012,189.507,189.507,189.507c33.349,0,65.795-8.715,94.493-25.293l146.594,146.594
			c7.536,7.535,17.554,11.686,28.212,11.686c10.658,0,20.677-4.151,28.212-11.686C509.23,484.759,509.23,459.449,493.676,443.893z
			 M474.869,481.507c-2.512,2.512-5.851,3.895-9.404,3.895c-3.552,0-6.893-1.383-9.404-3.895L302.036,327.483
			c-2.571-2.569-5.975-3.895-9.408-3.895c-2.524,0-5.064,0.717-7.296,2.184c-26.543,17.431-57.375,26.644-89.168,26.644
			c-89.829,0-162.909-73.08-162.909-162.909s73.08-162.909,162.909-162.909s162.909,73.08,162.909,162.909
			c0,37.586-13.166,74.285-37.073,103.34c-4.35,5.288-3.975,13.013,0.864,17.854l152.001,152
			C480.052,467.886,480.052,476.322,474.869,481.507z"/>
	</g>
</g>
<g>
	<g>
		<path d="M196.165,53.195c-75.163,0-136.312,61.149-136.312,136.312s61.15,136.312,136.312,136.312
			c75.163,0,136.312-61.149,136.312-136.312S271.328,53.195,196.165,53.195z M196.165,299.221
			c-60.497,0-109.714-49.217-109.714-109.714c0-60.497,49.217-109.714,109.714-109.714s109.714,49.217,109.714,109.714
			C305.879,250.004,256.662,299.221,196.165,299.221z"/>
	</g>
</g>
<g>
	<g>
		<path d="M260.891,176.208H131.894c-7.345,0-13.299,5.954-13.299,13.299c0,7.345,5.954,13.299,13.299,13.299h128.997
			c7.344,0,13.299-5.954,13.299-13.299C274.19,182.162,268.236,176.208,260.891,176.208z"/>
	</g>
</g>
<g>
</g>
<g>
</g>
<g>
</g>
<g>
</g>
<g>
</g>
<g>
</g>
<g>
</g>
<g>
</g>
<g>
</g>
<g>
</g>
<g>
</g>
<g>
</g>
<g>
</g>
<g>
</g>
<g>
</g>
</svg>
